<?xml version="1.0" encoding="UTF-8"?>
<svg width="60px" height="68px" viewBox="0 0 60 68" version="1.1" xmlns="http://www.w3.org/2000/svg" xmlns:xlink="http://www.w3.org/1999/xlink">
    <!-- Generator: Sketch 48.2 (47327) - http://www.bohemiancoding.com/sketch -->
    <title>copy - anticon</title>
    <desc>Created with Sketch.</desc>
    <defs>
        <filter x="-6.7%" y="-4.2%" width="114.8%" height="111.4%" filterUnits="objectBoundingBox" id="filter-1">
            <feOffset dx="2" dy="8" in="SourceAlpha" result="shadowOffsetOuter1"></feOffset>
            <feGaussianBlur stdDeviation="9" in="shadowOffsetOuter1" result="shadowBlurOuter1"></feGaussianBlur>
            <feColorMatrix values="0 0 0 0 0.818409269   0 0 0 0 0.856057156   0 0 0 0 0.914620536  0 0 0 0.616394928 0" type="matrix" in="shadowBlurOuter1" result="shadowMatrixOuter1"></feColorMatrix>
            <feMerge>
                <feMergeNode in="shadowMatrixOuter1"></feMergeNode>
                <feMergeNode in="SourceGraphic"></feMergeNode>
            </feMerge>
        </filter>
    </defs>
    <g id="Login---NEP2-Info-Copy" stroke="none" stroke-width="1" fill="none" fill-rule="evenodd" transform="translate(-608.000000, -380.000000)">
        <g id="CONTENT" transform="translate(0.000000, 76.000000)" fill="#0052F3">
            <g id="General-details" filter="url(#filter-1)" transform="translate(30.000000, 216.000000)">
                <path d="M617.34375,105.4375 C617.760419,105.854169 617.96875,106.374997 617.96875,107 L617.96875,123.75 C617.96875,124.375003 617.75521,124.906248 617.328125,125.34375 C616.90104,125.781252 616.375003,126 615.75,126 L613.96875,126 L613.96875,127.75 C613.96875,128.375003 613.750002,128.906248 613.3125,129.34375 C612.874998,129.781252 612.35417,130 611.75,130 L596.25,130 C595.64583,130 595.119794,129.781252 594.671875,129.34375 C594.223956,128.906248 594,128.375003 594,127.75 L594,104.25 C594,103.64583 594.223956,103.119794 594.671875,102.671875 C595.119794,102.223956 595.64583,102 596.25,102 L598,102 L598,100.25 C598,99.6249969 598.223956,99.0937522 598.671875,98.65625 C599.119794,98.2187478 599.656247,98 600.28125,98 L609.0625,98 C609.375002,98 609.677082,98.0624994 609.96875,98.1875 C610.010417,98.2083334 610.041667,98.2291666 610.0625,98.25 C610.083333,98.25 610.125,98.2708331 610.1875,98.3125 C610.354168,98.4166672 610.510416,98.5312494 610.65625,98.65625 L617.34375,105.4375 Z M610.21875,101.4375 L610.21875,105.75 L614.5,105.75 L610.21875,101.4375 Z M611.71875,127.75 L611.71875,126 L600.28125,126 C599.656247,126 599.119794,125.781252 598.671875,125.34375 C598.223956,124.906248 598,124.375003 598,123.75 L598,104.25 L596.25,104.25 L596.25,127.75 L611.71875,127.75 Z M615.71875,123.75 L615.71875,108 L610.25,108 C609.624997,108 609.088544,107.781252 608.640625,107.34375 C608.192706,106.906248 607.96875,106.375003 607.96875,105.75 L607.96875,100.25 L600.25,100.25 L600.25,123.75 L615.71875,123.75 Z M609.65625,111.9375 C609.447916,112.145834 609.187502,112.25 608.875,112.25 L603.125,112.25 C602.812498,112.25 602.546876,112.140626 602.328125,111.921875 C602.109374,111.703124 602,111.437502 602,111.125 C602,110.812498 602.109374,110.546876 602.328125,110.328125 C602.546876,110.109374 602.812498,110 603.125,110 L608.875,110 C609.187502,110 609.453124,110.109374 609.671875,110.328125 C609.890626,110.546876 610,110.812498 610,111.125 C610,111.437502 609.885418,111.708332 609.65625,111.9375 Z M613.65625,115.9375 C613.447916,116.145834 613.187502,116.25 612.875,116.25 L603.125,116.25 C602.812498,116.25 602.546876,116.140626 602.328125,115.921875 C602.109374,115.703124 602,115.437502 602,115.125 C602,114.812498 602.109374,114.546876 602.328125,114.328125 C602.546876,114.109374 602.812498,114 603.125,114 L612.875,114 C613.187502,114 613.453124,114.109374 613.671875,114.328125 C613.890626,114.546876 614,114.812498 614,115.125 C614,115.437502 613.885418,115.708332 613.65625,115.9375 Z M611.65625,119.9375 C611.447916,120.145834 611.187502,120.25 610.875,120.25 L603.125,120.25 C602.812498,120.25 602.546876,120.140626 602.328125,119.921875 C602.109374,119.703124 602,119.437502 602,119.125 C602,118.812498 602.109374,118.546876 602.328125,118.328125 C602.546876,118.109374 602.812498,118 603.125,118 L610.875,118 C611.187502,118 611.453124,118.109374 611.671875,118.328125 C611.890626,118.546876 612,118.812498 612,119.125 C612,119.437502 611.885418,119.708332 611.65625,119.9375 Z" id="copy---anticon"></path>
            </g>
        </g>
    </g>
</svg>