<?xml version="1.0" encoding="utf-8"?>
<!-- Generator: Adobe Illustrator 22.0.1, SVG Export Plug-In . SVG Version: 6.00 Build 0)  -->
<svg version="1.1" id="Layer_1" xmlns="http://www.w3.org/2000/svg" xmlns:xlink="http://www.w3.org/1999/xlink" x="0px" y="0px"
	 viewBox="0 0 151 172" style="enable-background:new 0 0 151 172;" xml:space="preserve">
<style type="text/css">
	.st0{opacity:0.13;fill:#FFFFFF;enable-background:new    ;}
	.st1{filter:url(#filter-2);}
	.st2{fill:#FFFFFF;}
	.st3{fill:#2CE3B5;}
	.st4{enable-background:new    ;}
	.st5{fill:#067D5F;}
</style>
<filter  filterUnits="objectBoundingBox" height="164.7%" id="filter-2" width="172.6%" x="-36.3%" y="-22.4%">
	<feOffset  dx="0" dy="12" in="SourceAlpha" result="shadowOffsetOuter1"></feOffset>
	<feGaussianBlur  in="shadowOffsetOuter1" result="shadowBlurOuter1" stdDeviation="11"></feGaussianBlur>
	
		<feColorMatrix  in="shadowBlurOuter1" type="matrix" values="0 0 0 0 0.823529412   0 0 0 0 0.858823529   0 0 0 0 0.91372549  0 0 0 1 0">
		</feColorMatrix>
</filter>
<title>ICON_AccountReady</title>
<desc>Created with Sketch.</desc>
<g id="Create_x5F_Account---Create_x2F_Import-Wallet" transform="translate(-282.000000, -202.000000)">
	<g id="ICON_AccountReady" transform="translate(287.000000, 202.000000)">
		<polygon id="Polygon" class="st0" points="70.7,0 141.4,39.6 141.4,118.9 70.7,158.6 0.1,118.9 0.1,39.6 		"/>
		<g id="Polygon_1_">
			<g class="st1">
				<polygon id="path-1_2_" points="70.7,19 124.5,49.1 124.5,109.4 70.7,139.6 17,109.4 17,49.1 				"/>
			</g>
			<g>
				<polygon id="path-1_1_" class="st2" points="70.7,19 124.5,49.1 124.5,109.4 70.7,139.6 17,109.4 17,49.1 				"/>
			</g>
		</g>
		<g id="circular-icons_x2F_complete" transform="translate(51.000000, 59.000000)">
			<g id="ICON_Not-complete">
				<circle id="Oval" class="st3" cx="20" cy="20" r="20"/>
				<g class="st4">
					<path class="st5" d="M28.4,16l-8.1,8.1l-1.5,1.5c-0.2,0.2-0.5,0.3-0.8,0.3s-0.6-0.1-0.8-0.3l-1.5-1.5l-4-4
						c-0.2-0.2-0.3-0.5-0.3-0.8c0-0.3,0.1-0.6,0.3-0.8l1.5-1.5c0.2-0.2,0.5-0.3,0.8-0.3s0.6,0.1,0.8,0.3l3.3,3.3l7.3-7.3
						c0.2-0.2,0.5-0.3,0.8-0.3c0.3,0,0.6,0.1,0.8,0.3l1.5,1.5c0.2,0.2,0.3,0.5,0.3,0.8C28.7,15.5,28.6,15.8,28.4,16z"/>
				</g>
			</g>
		</g>
	</g>
</g>
</svg>
