<?xml version="1.0" encoding="UTF-8"?>
<svg width="164px" height="84px" viewBox="0 0 164 84" version="1.1" xmlns="http://www.w3.org/2000/svg" xmlns:xlink="http://www.w3.org/1999/xlink">
    <!-- Generator: Sketch 49 (51002) - http://www.bohemiancoding.com/sketch -->
    <title>nex_logo</title>
    <desc>Created with Sketch.</desc>
    <defs></defs>
    <g id="Page-1" stroke="none" stroke-width="1" fill="none" fill-rule="evenodd">
        <g id="nex_logo" fill="#0052F3">
            <path d="M145.8342,0.0002 L135.5662,15.3302 L124.2522,0.0002 L107.6962,0.0002 L127.0052,26.1712 L106.6532,53.0962 L123.1402,53.0962 L126.5252,48.5222 L143.3082,25.8212 L143.3072,25.8222 L162.3952,0.0002 L145.8342,0.0002 Z M59.9582,0.0002 L59.9582,53.1572 L101.2752,53.1572 L101.2752,41.5702 L72.7942,41.5702 L72.7942,32.2302 L94.5262,32.2302 L94.5262,20.6462 L72.7942,20.6462 L72.7942,11.5872 L100.4082,11.5872 L100.4082,0.0002 L59.9582,0.0002 Z M36.1592,0.0002 L36.1592,31.6322 L11.5242,0.0002 L0.0002,0.0002 L0.0002,5.2982 L37.1462,53.1532 L48.6792,53.1532 L48.6792,0.0002 L36.1592,0.0002 Z M0.0002,53.1532 L12.6622,53.1532 L12.6622,26.4582 L0.0002,10.1422 L0.0002,53.1532 Z M136.8582,39.6282 L136.8592,39.6282 L146.9472,53.0962 L163.4362,53.0962 L163.4362,53.0952 L145.1872,28.3662 L136.8582,39.6282 Z" id="Fill-1"></path>
            <path d="M55.7983,76.9583 L54.2723,70.5883 C54.1593,70.1513 54.1023,69.6743 54.1023,69.1583 L54.0303,69.1583 C53.8193,69.8203 53.6503,70.2963 53.5213,70.5883 L50.6133,76.9583 L55.7983,76.9583 Z M45.4053,82.8933 C45.4053,82.8123 45.4463,82.6763 45.5273,82.4813 L52.8183,66.6623 C52.9473,66.3883 53.3193,66.2513 53.9333,66.2513 L54.8053,66.2513 C55.4353,66.2513 55.7893,66.3883 55.8703,66.6623 L59.8683,82.5063 C59.8833,82.5713 59.8923,82.6683 59.8923,82.7963 C59.8923,83.1363 59.5123,83.3063 58.7533,83.3063 L58.3173,83.3063 C57.6873,83.3063 57.3403,83.1693 57.2763,82.8933 L56.3313,79.2123 L49.5963,79.2123 L47.9253,82.8933 C47.8123,83.1693 47.4653,83.3063 46.8833,83.3063 L46.5203,83.3063 C45.7773,83.3063 45.4053,83.1693 45.4053,82.8933 Z" id="Fill-2"></path>
            <path d="M62.1811,83.0873 C62.0761,82.9753 62.0231,82.7813 62.0231,82.5063 L63.6711,66.8563 C63.7031,66.4533 64.0911,66.2513 64.8331,66.2513 L65.2211,66.2513 C65.9161,66.2513 66.2631,66.4533 66.2631,66.8563 L64.7851,81.0283 L71.3501,81.0283 C71.5281,81.0283 71.6531,81.0813 71.7251,81.1863 C71.7981,81.2903 71.8351,81.4563 71.8351,81.6833 L71.8351,81.8273 C71.8191,82.2803 71.7621,82.6313 71.6651,82.8823 C71.5681,83.1323 71.3901,83.2573 71.1321,83.2573 L62.7511,83.2573 C62.4751,83.2573 62.2851,83.2003 62.1811,83.0873" id="Fill-5"></path>
            <path d="M80.5795,74.0521 C80.9995,74.0521 81.4395,73.9621 81.8995,73.7851 C82.3595,73.6081 82.7605,73.2771 83.0995,72.7921 C83.4375,72.3071 83.6075,71.6451 83.6075,70.8061 C83.6075,69.9661 83.3455,69.3761 82.8205,69.0361 C82.2955,68.6981 81.6615,68.5291 80.9185,68.5291 L77.8175,68.5291 L77.2365,74.0521 L80.5795,74.0521 Z M73.9665,83.1601 C73.8045,83.0631 73.7245,82.9091 73.7245,82.6991 L75.3715,67.0991 C75.3875,66.8241 75.4685,66.6231 75.6135,66.4931 C75.7585,66.3651 75.9685,66.3001 76.2435,66.3001 L81.2575,66.3001 C82.5985,66.3001 83.7775,66.5981 84.7945,67.1961 C85.8125,67.7931 86.3215,68.8831 86.3215,70.4661 C86.3215,72.0321 85.9615,73.2471 85.2435,74.1131 C84.5235,74.9771 83.7215,75.5531 82.8325,75.8431 C81.9435,76.1351 81.1525,76.2811 80.4585,76.2811 L76.9945,76.2811 L76.3405,82.6991 C76.2925,83.1041 75.8955,83.3061 75.1535,83.3061 L74.7895,83.3061 C74.4025,83.3061 74.1275,83.2571 73.9665,83.1601 Z" id="Fill-7"></path>
            <path d="M87.7983,82.6996 L89.4713,66.8556 C89.5023,66.4536 89.8903,66.2516 90.6333,66.2516 L91.0213,66.2516 C91.7153,66.2516 92.0633,66.4536 92.0633,66.8556 L91.3603,73.4456 L99.4753,73.4456 L100.1783,66.8556 C100.2263,66.4536 100.6133,66.2516 101.3413,66.2516 L101.7283,66.2516 C102.4393,66.2516 102.7943,66.4536 102.7943,66.8556 L101.1233,82.6996 C101.0733,83.1036 100.6873,83.3056 99.9593,83.3056 L99.5713,83.3056 C98.8773,83.3056 98.5293,83.1036 98.5293,82.6996 L99.2573,75.6986 L91.1423,75.6986 L90.4153,82.6996 C90.3833,82.8926 90.2703,83.0436 90.0753,83.1476 C89.8823,83.2536 89.6083,83.3056 89.2513,83.3056 L88.8643,83.3056 C88.1533,83.3056 87.7983,83.1036 87.7983,82.6996" id="Fill-10"></path>
            <path d="M113.937,76.9583 L112.411,70.5883 C112.297,70.1513 112.241,69.6743 112.241,69.1583 L112.167,69.1583 C111.958,69.8203 111.79,70.2963 111.66,70.5883 L108.753,76.9583 L113.937,76.9583 Z M103.544,82.8933 C103.544,82.8123 103.584,82.6763 103.665,82.4813 L110.958,66.6623 C111.085,66.3883 111.457,66.2513 112.071,66.2513 L112.943,66.2513 C113.573,66.2513 113.928,66.3883 114.01,66.6623 L118.006,82.5063 C118.022,82.5713 118.031,82.6683 118.031,82.7963 C118.031,83.1363 117.651,83.3063 116.892,83.3063 L116.456,83.3063 C115.827,83.3063 115.478,83.1693 115.414,82.8933 L114.469,79.2123 L107.735,79.2123 L106.064,82.8933 C105.951,83.1693 105.604,83.3063 105.022,83.3063 L104.659,83.3063 C103.916,83.3063 103.544,83.1693 103.544,82.8933 Z" id="Fill-12"></path>
        </g>
    </g>
</svg>